<?xml version='1.0' encoding='utf-8' standalone="yes"?>
<svg xmlns:svg='http://www.w3.org/2000/svg'      xmlns='http://www.w3.org/2000/svg' 
width='800' height='600' overflow='visible' xml:space='preserve'>
    <path d="M 199.84 107.6 C 199.93 112.5 202.67 123 204.89 127.53 C 206.35 128.04 206.87 126.66 207.89 126.9 C 205.04 122.86 203.49 112.51 203.49 104.7 C 202.73 105.61 199.84 106.99 199.84 107.6 Z" style="fill: rgb(1,1,1);" />
    <path d="M 464.06 369.63 C 470.83 349.35 477.14 329.25 475.28 305.15 C 472.15 264.6 438.2 235.26 392.58 239.27 C 364.64 241.73 343.71 257.84 328.81 275.01 C 312.82 293.44 302.45 315.97 294.47 340.89 C 292.19 340.4 293.98 336.94 290.96 338.79 C 269.49 354 239.08 360.26 204.06 361.92 C 220.81 384.82 254.21 396.99 291.66 394.85 C 324.78 392.98 349.91 374.65 368.75 355.61 C 372.7 351.62 386.65 340.06 388.38 335.99 C 390.55 330.84 387.72 323.77 391.18 320.57 C 393.1 329.33 390.05 339.01 388.38 346.5 C 405.35 362.46 429.65 371.11 464.06 369.63 Z" style="fill: rgb(1,1,1);" />
    <path d="M 462.66 372.43 C 428.86 373.3 405.08 364.14 386.97 349.3 C 385.5 353.9 383.57 358.05 380.67 361.22 C 395.44 380.01 420.65 391.57 456.35 387.15 C 458.22 382 460.95 377.72 462.66 372.43 Z" style="fill: rgb(1,1,1);" />
    <path d="M 411.5 119.43 C 420.77 117.59 433.58 113.06 429.02 101.91 C 419.68 98.6 415.62 104.22 406.6 101.21 C 388.62 95.21 391.1 60.75 375.76 61.27 C 371.56 61.41 368.56 65.61 368.05 68.27 C 366.12 78.48 375.85 81.19 372.96 91.4 C 371.87 90.38 371.48 88.67 371.56 86.49 C 364.77 90.08 360.42 99.52 362.45 109.62 C 354.84 136.59 335.3 151.62 310.59 161.48 C 318.87 174.22 324.58 189.53 325.3 209.84 C 334.18 210.54 340.96 213.34 347.73 216.15 C 361.69 203.45 374.45 190.22 384.17 172.7 C 393.77 155.41 398.62 134.63 411.5 119.43 Z" style="fill: rgb(1,1,1);" />
    <path d="M 396.79 88.6 C 411.71 84.57 401.81 64.68 390.48 75.98 C 393.23 79.54 394.51 84.57 396.79 88.6 Z" style="fill: rgb(1,1,1);" />
    <path d="M 359.64 104.71 C 359.85 99.31 362.05 95.91 363.15 91.4 C 356.89 89.37 342.19 85.92 343.52 97 C 347.08 101.39 356.2 100.22 359.64 104.71 Z" style="fill: rgb(1,1,1);" />
    <path d="M 375.06 241.38 C 363.13 227.52 346.85 212.94 323.2 211.24 C 317.75 210.85 308.74 212.51 304.28 210.54 C 306.55 210.48 308.59 210.18 309.89 209.14 C 294.2 190.24 273.14 176.74 249.61 165.69 C 252.2 164.16 254.52 168 258.02 167.79 C 259.71 163.4 262.72 160.34 264.33 155.88 C 258.31 150.92 251.82 146.43 244.71 142.56 C 244.58 153.24 249.5 162.49 247.51 172.7 C 238.37 170.39 232 165.31 222.28 163.59 C 220.03 174.15 226.7 181.51 229.29 189.52 C 220.45 201.47 206.27 208.08 192.85 215.45 C 201.52 222.41 209.18 231.29 210.37 244.18 C 212.7 269.31 190.35 283.64 175.33 293.24 C 176.37 320 182.56 341.6 192.15 359.82 C 235.07 360.46 268.5 351.6 294.47 335.29 C 309.11 291.77 331.62 256.1 375.06 241.38 Z" style="fill: rgb(1,1,1);" />
    <path d="M 323.2 209.84 C 323.78 189.13 314.29 165.76 301.47 155.17 C 290.6 146.19 265.15 158.45 260.12 169.89 C 282.49 178.6 297.73 194.43 313.39 209.84 C 316.66 209.84 319.93 209.84 323.2 209.84 Z" style="fill: rgb(1,1,1);" />
    <path d="M 290.96 477.55 C 311.44 458.12 323.2 422.28 326.7 388.55 C 304.11 401.6 258.54 398.13 234.9 388.55 C 237.03 400.16 234.07 411.84 230.69 420.78 C 228.29 427.13 226.16 434.76 221.58 436.2 C 224.48 427.41 231.31 418.84 230.69 408.87 C 212.18 411.38 197.63 417.87 189.34 430.6 C 196.69 463.4 218.03 489.12 253.12 491.57 C 270.11 492.75 282.36 485.73 290.96 477.55 Z" style="fill: rgb(1,1,1);" />
    <path d="M 246.11 163.58 C 244.05 157.47 245.58 147.76 241.2 143.96 C 239.31 147.91 234.21 148.65 232.79 153.07 C 236.53 157.29 240.35 161.4 246.11 163.58 Z" style="fill: rgb(1,1,1);" />
    <path d="M 246.81 170.59 C 245.05 163.01 237.4 161.31 232.79 156.58 C 233.4 160.69 230.17 160.96 229.99 164.29 C 236.28 165.7 240.55 169.15 246.81 170.59 Z" style="fill: rgb(1,1,1);" />
    <path d="M 226.49 151.67 C 229.72 148.36 235.34 147.44 234.19 139.76 C 231.43 135.76 224.49 138.47 221.58 140.46 C 217.62 138.21 215.71 138.87 213.17 142.56 C 216.74 143.2 223.02 141.12 224.38 143.96 C 219.19 157.44 207.86 166.82 193.55 164.98 C 180.08 163.26 166.92 146.32 166.92 132.05 C 166.92 105.22 205.39 97.22 220.88 80.89 C 224.89 76.67 229.88 70 231.39 64.77 C 233.79 56.5 231.05 43.93 222.98 44.44 C 216.35 44.87 215.76 55.22 211.07 56.36 C 201.13 82.5 154.69 94.71 164.81 139.06 C 165.74 143.11 168.74 149.79 171.82 153.77 C 177.57 161.24 191.68 172.32 204.06 170.59 C 212.52 169.41 215.3 158.41 227.89 162.18 C 229.15 160.19 231.32 159.08 230.69 155.17 C 231.46 151.84 226.52 154.21 226.49 151.67 Z" style="fill: rgb(1,1,1);" />
    <path d="M 232.09 406.77 C 233.54 401.68 232.46 394.06 232.79 387.85 C 212.26 389.98 198.13 398.5 186.54 409.57 C 186.41 415.77 187.26 421 188.64 425.69 C 198.47 417.53 211.98 406.99 232.09 406.77 Z" style="fill: rgb(1,1,1);" />
    <path d="M 225.08 87.9 C 227.09 85.3 229.5 79.89 225.08 78.08 C 211.27 97.92 181.23 101.51 170.42 124.34 C 178.68 126.29 177.79 119.1 180.23 115.23 C 183.34 116.26 184.35 115.23 187.94 115.23 C 190.8 113.42 190.43 108.37 192.85 106.12 C 195.99 106.46 198.09 105.77 200.56 105.42 C 202.88 104 202.68 100.06 204.76 98.41 C 208.5 99.19 211.69 99.33 214.57 97.71 C 215.9 95.3 216.56 92.21 217.38 89.3 C 220.92 89.8 222.49 88.35 225.08 87.9 Z" style="fill: rgb(1,1,1);" />
    <path d="M 227.89 188.81 C 223.38 182.11 220.5 173.78 219.48 163.58 C 202.91 174.59 184.51 183.74 169.72 196.52 C 169.72 200.03 169.72 203.53 169.72 207.03 C 177.46 208.88 185.59 210.32 191.45 214.04 C 205.29 207.33 218.83 200.31 227.89 188.81 Z" style="fill: rgb(1,1,1);" />
    <path d="M 167.62 295.34 C 185.83 285.79 211.66 270.03 208.97 244.18 C 206.07 216.39 173.96 201.22 142.39 212.64 C 164.88 224.87 175.51 265.3 167.62 295.34 Z" style="fill: rgb(1,1,1);" />
    <path d="M 196.35 73.18 C 202.35 67.32 216.89 49.65 203.36 45.85 C 189.47 41.96 183.13 62.87 175.33 66.17 C 178.89 84.33 164.76 95.94 153.6 97.01 C 118.39 100.38 116.29 44.09 151.5 45.14 C 150.85 32.35 157.68 27.03 163.41 20.62 C 161.53 15.89 153.17 17.91 150.8 20.62 C 140.51 13.27 130.06 6.43 115.06 5.2 C 85.55 2.78 71.76 24.39 64.6 46.55 C 65.62 49.5 69.97 49.12 70.91 52.15 C 67.49 53.18 64.84 46.93 63.9 50.05 C 62 54.9 61.98 64.65 63.2 70.37 C 64.32 72.76 69.07 71.51 69.5 74.58 C 66.98 74.77 66.13 73.29 63.9 73.18 C 72.32 101.9 101.15 110.21 123.47 125.04 C 121.39 119.18 116.14 116.49 116.46 108.22 C 124.53 105.13 135.57 110.38 140.99 114.52 C 132.8 113.48 125.77 107.94 117.86 108.92 C 119.68 117.61 124.89 122.91 129.78 128.54 C 131.75 125.35 138.71 120.55 142.39 123.64 C 124.13 124.32 126.2 151.19 143.79 148.87 C 151.15 147.89 151.33 138.95 156.41 136.95 C 154.85 141.7 152.39 145.55 149.4 148.87 C 161.08 158.92 169.54 172.18 171.13 192.32 C 181.2 186.04 190.85 179.33 200.56 172.69 C 175.31 166.45 159.65 150.05 162.02 122.94 C 164.15 98.38 183.98 85.26 196.35 73.18 Z" style="fill: rgb(1,1,1);" />
    <path d="M 200.56 43.74 C 202.3 11.73 149.77 12.25 152.9 45.14 C 164.88 46.71 171.09 54.05 175.33 63.37 C 184.05 57.14 187.44 45.57 200.56 43.74 Z" style="fill: rgb(1,1,1);" />
    <path d="M 169.02 286.23 C 169.17 259.21 163.79 237.73 152.2 222.45 C 137.81 229.57 114.92 226.23 101.04 221.05 C 99.3 221.89 100.19 225.35 96.83 224.56 C 99.59 216.41 103.44 207.49 98.24 200.73 C 90.63 190.86 67.62 196.36 70.2 209.14 C 72.33 219.64 88.99 212.52 91.93 209.14 C 88.33 219.08 69.07 219.75 68.1 208.44 C 67.37 199.99 75.58 194.63 84.92 193.72 C 81.77 180.84 80.23 159.36 63.9 164.29 C 60.23 174.18 70.33 183.37 66 191.62 C 64.14 191.84 66.66 187.69 63.9 188.82 C 41.33 183.43 43.72 221.69 57.59 221.75 C 69 221.81 63.93 205.52 63.19 198.63 C 70.01 207.18 68.13 223.89 57.59 223.86 C 47.24 223.82 45.36 209.77 44.97 197.93 C 35.25 193.81 19.99 194.88 23.25 209.84 C 28.22 216.83 39.39 208.17 44.27 211.24 C 44.14 214.55 40.49 209.99 40.76 213.34 C 37.03 233.25 53.91 238.48 65.99 244.88 C 62.9 246.35 59.79 241.92 59.69 244.88 C 74.68 278.88 121.64 300.11 169.02 286.23 Z" style="fill: rgb(1,1,1);" />
    <path d="M 153.6 291.83 C 156.24 299.93 168.28 298.06 168.32 289.03 C 163.38 289.93 158.49 290.88 153.6 291.83 Z" style="fill: rgb(1,1,1);" />
    <path d="M 147.99 95.6 C 183.39 99.04 181.86 41.18 146.59 47.25 C 119.3 51.94 122.13 93.1 147.99 95.6 Z" style="fill: rgb(1,1,1);" />
    <path d="M 150.1 221.05 C 147.57 212.9 130.32 209.08 133.27 224.55 C 140.13 224.64 145.11 222.85 150.1 221.05 Z" style="fill: rgb(1,1,1);" />
    <path d="M 68.8 31.83 C 70.69 24.33 78.58 19.24 80.01 13.61 C 65.93 8.9 55.94 17.2 56.89 31.83 C 60.69 30.52 64.74 31.49 68.8 31.83 Z" style="fill: rgb(1,1,1);" />
    <path d="M 63.19 44.44 C 64.08 40.19 66.23 37.21 67.4 33.23 C 62.79 32.82 61.5 32.82 56.89 33.23 C 57.6 38.36 58.95 42.85 63.19 44.44 Z" style="fill: rgb(1,1,1);" />
    <path d="M 55.49 34.63 C 39.91 39.38 50.61 68.59 61.09 68.27 C 59.35 61.85 60.61 52.39 62.49 47.25 C 59.1 44.11 56.12 40.54 55.49 34.63 Z" style="fill: rgb(1,1,1);" />
    <path d="M 478.08 313.56 C 478.14 342.61 467.88 366.75 457.76 388.55 C 456.86 389.51 454.72 389.24 452.85 389.25 C 450.23 418.68 447.8 457.92 424.82 466.34 C 416.49 469.4 409.05 465.47 404.5 460.03 C 394.34 447.91 391.17 425.44 386.98 407.47 C 385.43 406.21 381.98 406.86 379.97 406.07 C 373.83 396.23 365.48 371.52 380.67 366.12 C 374.91 359.06 387.17 351.77 386.98 341.59 C 369.82 355.75 353.47 376.77 330.21 387.14 C 325.86 414.19 319.65 435.89 309.18 455.83 C 299.51 474.26 282.59 493.17 258.02 493.67 C 216.83 494.52 195.08 464.38 187.24 429.19 C 185.1 419.6 181.21 407.91 189.34 403.96 C 172.43 392.56 151.76 374.26 149.4 347.2 C 148.53 337.21 149.17 326.81 155 321.97 C 162.08 320.63 170.1 321.55 176.73 322.67 C 175.57 313.55 174.01 304.83 173.23 295.33 C 169.52 296.13 165.49 299.83 161.31 299.54 C 156.61 299.22 153.73 293.42 150.1 292.53 C 147.37 291.87 144.55 293.12 141.69 293.23 C 105.45 294.68 67.21 272.06 56.89 242.77 C 46.55 237.67 35.78 229.34 38.67 213.34 C 23.93 220.59 15.39 204.88 24.65 196.52 C 29.75 191.91 39.4 193.4 45.68 196.52 C 49.47 190.73 54.39 186.07 64.6 186.7 C 64.52 178.45 58.9 172.52 61.79 163.58 C 79.16 154.07 84.31 178.76 87.02 193.01 C 97.88 195.39 105.47 203.45 101.74 218.24 C 109.63 222.03 119.1 224.25 130.47 224.55 C 130.77 206.39 151.02 208.18 168.32 207.03 C 170.96 181.37 162.61 161.17 147.29 149.56 C 135.5 154.25 123.24 143.02 128.37 130.64 C 124.77 127.16 114.16 127.2 108.05 128.54 C 110.27 136.13 119.56 136.66 122.77 143.25 C 116 139.27 108.58 135.95 105.94 127.84 C 108.23 124.75 114.8 125.94 119.96 125.73 C 98.21 110.57 69.58 102.29 61.79 73.17 C 53.2 68.48 38.09 48.86 48.48 36.03 C 49.68 34.56 52.35 33.39 54.79 32.52 C 53.08 16.05 66.65 6.2 81.42 12.9 C 98.54 -3.65 136.61 3.85 150.8 17.81 C 155.27 14.33 163.74 14.48 165.52 20.61 C 184 12.19 201.71 25 201.96 43.74 C 206.34 45.43 209.3 48.54 211.07 52.85 C 217.36 50.23 216.08 42.4 223.68 42.33 C 237.83 42.21 236.12 68.26 227.19 75.27 C 231.06 82.34 228.24 91.17 218.78 90.69 C 217.72 93.61 217.04 96.91 215.27 99.1 C 212.53 99.86 210.13 100.97 206.16 100.5 C 204.18 110.01 205.77 121.87 210.37 127.13 C 214.31 126.93 217.46 126.89 219.48 129.24 C 221.21 132.56 217.73 135.42 219.48 138.35 C 227.16 133.27 241.12 136.04 234.89 147.46 C 237.99 145.18 241.19 143.01 244 140.45 C 252.11 144.49 258.33 150.41 266.43 154.46 C 266.92 158.23 264.36 158.94 263.63 161.47 C 271.71 154.61 283.26 151.2 296.56 149.56 C 300.86 152.74 304.83 156.24 308.48 160.07 C 323.7 154.35 343.05 143.47 352.63 127.13 C 355.68 121.94 360.58 113.6 359.64 108.91 C 358.17 101.62 347.28 104 342.12 99.1 C 336.94 86.18 356 84.56 363.14 89.99 C 366.46 89.11 367.44 85.88 370.15 84.38 C 368.62 78.44 364.91 74.67 365.95 66.16 C 372.39 53.31 388.03 61.91 389.77 73.17 C 405.01 63.17 413.42 84.17 398.88 90.69 C 401.76 102.18 417.9 99.1 429.02 99.1 C 438.81 110.56 423.46 120.23 412.2 121.53 C 400.23 137.12 395.26 157.07 385.57 174.09 C 375.91 191.04 363.76 204.51 349.83 216.84 C 359.65 223.83 369.08 231.23 377.16 239.97 C 434.61 227.91 477.98 260.3 478.08 313.56 Z" style="fill: rgb(1,1,1);" />
    <path d="M 204.89 127.53 C 202.67 123 199.93 112.5 199.83 107.6 C 199.83 106.99 202.73 105.6 203.49 104.7 C 203.49 112.51 205.03 122.86 207.89 126.9 C 206.86 126.66 206.35 128.04 204.89 127.53 Z" style="fill: rgb(214,165,99);" />
    <path d="M 475.28 305.15 C 477.14 329.25 470.84 349.34 464.06 369.63 C 429.65 371.11 405.35 362.46 388.38 346.5 C 390.04 339.01 393.1 329.33 391.18 320.57 C 387.73 323.77 390.56 330.84 388.38 335.99 C 386.65 340.06 372.7 351.61 368.75 355.61 C 349.92 374.65 324.78 392.98 291.66 394.85 C 254.21 396.99 220.81 384.83 204.06 361.92 C 239.08 360.25 269.49 354 290.96 338.79 C 293.98 336.94 292.19 340.4 294.47 340.89 C 302.45 315.97 312.82 293.44 328.81 275.01 C 343.71 257.84 364.65 241.73 392.58 239.27 C 438.2 235.26 472.15 264.6 475.28 305.15 Z" style="fill: rgb(102,155,199);" />
    <path d="M 386.97 349.3 C 405.08 364.14 428.86 373.3 462.66 372.43 C 460.95 377.72 458.22 382 456.35 387.15 C 420.65 391.57 395.44 380 380.67 361.22 C 383.57 358.05 385.5 353.9 386.97 349.3 Z" style="fill: rgb(102,155,199);" />
    <path d="M 429.02 101.91 C 433.58 113.06 420.77 117.59 411.5 119.43 C 398.62 134.63 393.77 155.41 384.17 172.7 C 374.44 190.22 361.69 203.45 347.73 216.15 C 340.96 213.34 334.18 210.54 325.3 209.84 C 324.58 189.54 318.87 174.23 310.58 161.48 C 335.29 151.62 354.84 136.59 362.44 109.62 C 360.42 99.52 364.76 90.08 371.55 86.49 C 371.48 88.67 371.87 90.39 372.95 91.4 C 375.84 81.19 366.12 78.48 368.05 68.27 C 368.56 65.61 371.56 61.41 375.76 61.27 C 391.09 60.75 388.62 95.21 406.6 101.21 C 415.62 104.22 419.68 98.6 429.02 101.91 Z" style="fill: rgb(255,208,53);" />
    <path d="M 390.48 75.98 C 401.81 64.68 411.72 84.58 396.79 88.6 C 394.51 84.57 393.23 79.54 390.48 75.98 Z" style="fill: rgb(255,208,53);" />
    <path d="M 363.15 91.4 C 362.05 95.91 359.85 99.31 359.64 104.71 C 356.2 100.22 347.08 101.39 343.52 97.01 C 342.19 85.92 356.89 89.37 363.15 91.4 Z" style="fill: rgb(255,208,53);" />
    <path d="M 323.2 211.24 C 346.85 212.94 363.13 227.52 375.06 241.38 C 331.62 256.1 309.11 291.77 294.46 335.29 C 268.49 351.6 235.07 360.46 192.14 359.81 C 182.56 341.6 176.36 320 175.32 293.24 C 190.35 283.64 212.69 269.3 210.37 244.18 C 209.17 231.28 201.51 222.4 192.84 215.45 C 206.27 208.08 220.45 201.46 229.29 189.51 C 226.69 181.5 220.03 174.15 222.28 163.58 C 232 165.31 238.37 170.39 247.51 172.69 C 249.5 162.48 244.58 153.24 244.7 142.56 C 251.82 146.43 258.31 150.92 264.32 155.87 C 262.71 160.34 259.7 163.39 258.02 167.79 C 254.51 168 252.19 164.16 249.61 165.68 C 273.13 176.74 294.19 190.24 309.88 209.14 C 308.58 210.18 306.55 210.48 304.27 210.54 C 308.74 212.51 317.75 210.85 323.2 211.24 Z" style="fill: rgb(255,255,255);" />
    <path d="M 301.47 155.18 C 314.29 165.76 323.78 189.13 323.2 209.84 C 319.93 209.84 316.66 209.84 313.39 209.84 C 297.73 194.43 282.5 178.6 260.13 169.89 C 265.15 158.45 290.61 146.19 301.47 155.18 Z" style="fill: rgb(255,255,255);" />
    <path d="M 326.7 388.55 C 323.2 422.29 311.44 458.12 290.96 477.55 C 282.36 485.73 270.11 492.76 253.12 491.57 C 218.03 489.12 196.69 463.39 189.34 430.6 C 197.64 417.87 212.18 411.38 230.69 408.87 C 231.31 418.84 224.47 427.42 221.58 436.21 C 226.16 434.76 228.3 427.13 230.69 420.79 C 234.07 411.84 237.03 400.16 234.9 388.55 C 258.54 398.13 304.11 401.6 326.7 388.55 Z" style="fill: rgb(102,155,199);" />
    <path d="M 241.2 143.96 C 245.58 147.76 244.05 157.47 246.11 163.58 C 240.35 161.4 236.53 157.29 232.79 153.07 C 234.21 148.65 239.31 147.91 241.2 143.96 Z" style="fill: rgb(255,255,255);" />
    <path d="M 232.79 156.57 C 237.4 161.31 245.05 163.01 246.81 170.59 C 240.55 169.15 236.28 165.7 229.99 164.28 C 230.17 160.96 233.4 160.69 232.79 156.57 Z" style="fill: rgb(255,255,255);" />
    <path d="M 234.2 139.76 C 235.34 147.44 229.72 148.36 226.49 151.67 C 226.52 154.21 231.46 151.84 230.69 155.18 C 231.32 159.08 229.16 160.19 227.89 162.18 C 215.3 158.41 212.53 169.42 204.06 170.59 C 191.68 172.32 177.58 161.25 171.82 153.77 C 168.75 149.79 165.74 143.11 164.81 139.06 C 154.69 94.71 201.13 82.5 211.07 56.36 C 215.76 55.22 216.35 44.87 222.98 44.45 C 231.05 43.93 233.79 56.5 231.39 64.77 C 229.88 70 224.89 76.67 220.88 80.89 C 205.39 97.22 166.92 105.22 166.92 132.05 C 166.92 146.32 180.08 163.26 193.55 164.99 C 207.86 166.82 219.19 157.45 224.38 143.96 C 223.03 141.12 216.74 143.2 213.17 142.56 C 215.71 138.87 217.62 138.21 221.58 140.46 C 224.5 138.47 231.43 135.76 234.2 139.76 Z" style="fill: rgb(214,165,99);" />
    <path d="M 232.79 387.85 C 232.46 394.06 233.54 401.68 232.09 406.77 C 211.98 406.99 198.47 417.54 188.64 425.69 C 187.26 421 186.41 415.78 186.54 409.57 C 198.13 398.5 212.26 389.98 232.79 387.85 Z" style="fill: rgb(102,155,199);" />
    <path d="M 225.08 78.08 C 229.5 79.88 227.09 85.29 225.08 87.9 C 222.49 88.34 220.91 89.8 217.38 89.3 C 216.56 92.21 215.9 95.3 214.57 97.71 C 211.69 99.33 208.5 99.19 204.76 98.41 C 202.68 100.06 202.88 104 200.56 105.42 C 198.1 105.77 195.99 106.46 192.85 106.12 C 190.43 108.37 190.8 113.42 187.94 115.23 C 184.35 115.23 183.34 116.26 180.23 115.23 C 177.79 119.1 178.68 126.29 170.42 124.34 C 181.23 101.51 211.27 97.92 225.08 78.08 Z" style="fill: rgb(255,255,255);" />
    <path d="M 219.48 163.58 C 220.5 173.78 223.38 182.11 227.89 188.81 C 218.83 200.31 205.29 207.33 191.45 214.04 C 185.59 210.32 177.46 208.88 169.72 207.04 C 169.72 203.53 169.72 200.03 169.72 196.52 C 184.51 183.74 202.91 174.59 219.48 163.58 Z" style="fill: rgb(255,255,255);" />
    <path d="M 208.97 244.18 C 211.66 270.02 185.82 285.79 167.62 295.34 C 175.51 265.3 164.88 224.87 142.39 212.64 C 173.96 201.22 206.07 216.38 208.97 244.18 Z" style="fill: rgb(255,255,255);" />
    <path d="M 203.36 45.85 C 216.88 49.65 202.35 67.32 196.35 73.18 C 183.97 85.26 164.15 98.38 162.01 122.94 C 159.65 150.05 175.3 166.45 200.56 172.69 C 190.84 179.33 181.19 186.04 171.12 192.32 C 169.53 172.18 161.07 158.92 149.39 148.87 C 152.39 145.55 154.84 141.7 156.4 136.95 C 151.33 138.95 151.15 147.89 143.79 148.87 C 126.2 151.19 124.12 124.32 142.39 123.64 C 138.71 120.55 131.75 125.35 129.77 128.54 C 124.89 122.91 119.67 117.61 117.86 108.92 C 125.77 107.94 132.79 113.48 140.98 114.52 C 135.56 110.38 124.52 105.13 116.45 108.22 C 116.13 116.49 121.38 119.18 123.46 125.04 C 101.15 110.21 72.32 101.9 63.89 73.18 C 66.12 73.29 66.98 74.77 69.5 74.58 C 69.06 71.51 64.31 72.76 63.19 70.37 C 61.97 64.65 61.99 54.9 63.89 50.05 C 64.83 46.93 67.49 53.18 70.9 52.15 C 69.97 49.12 65.62 49.5 64.59 46.55 C 71.76 24.39 85.54 2.78 115.05 5.2 C 130.06 6.43 140.51 13.27 150.79 20.62 C 153.16 17.91 161.52 15.89 163.41 20.62 C 157.68 27.03 150.84 32.35 151.49 45.14 C 116.29 44.09 118.39 100.38 153.6 97.01 C 164.75 95.94 178.88 84.33 175.32 66.17 C 183.13 62.87 189.47 41.96 203.36 45.85 Z" style="fill: rgb(255,208,53);" />
    <path d="M 140.99 132.75 C 142.86 130.96 144.68 133.18 147.29 132.75 C 143.77 126.77 134.57 132.25 134.68 138.35 C 138.51 139.15 136.44 134.05 139.58 134.15 C 138.89 138.07 144.58 142.44 146.59 139.05 C 143.64 138.04 140.82 136.89 140.99 132.75 Z" style="fill: rgb(255,208,53);" />
    <path d="M 152.9 45.15 C 149.77 12.25 202.3 11.73 200.56 43.74 C 187.44 45.57 184.05 57.14 175.33 63.37 C 171.09 54.05 164.88 46.72 152.9 45.15 Z" style="fill: rgb(255,255,255);" />
    <path d="M 189.34 36.03 C 192.2 36.33 193.76 35.32 193.55 32.53 C 192.8 29.14 186.62 30.03 187.94 34.63 C 188.14 35.36 188.73 35.82 189.34 36.03 Z" style="fill: rgb(255,255,255);" />
    <path d="M 193.55 32.53 C 193.76 35.32 192.2 36.33 189.34 36.03 C 188.73 35.82 188.14 35.36 187.94 34.63 C 186.62 30.04 192.8 29.14 193.55 32.53 Z" style="fill: rgb(1,1,1);" />
    <path d="M 152.2 222.45 C 163.78 237.73 169.17 259.21 169.02 286.23 C 121.64 300.11 74.67 278.87 59.69 244.88 C 59.79 241.91 62.9 246.35 66 244.88 C 53.91 238.47 37.03 233.24 40.77 213.34 C 40.49 209.98 44.15 214.55 44.27 211.24 C 39.39 208.16 28.22 216.82 23.25 209.84 C 19.99 194.87 35.25 193.81 44.97 197.92 C 45.36 209.77 47.24 223.82 57.59 223.85 C 68.14 223.89 70.02 207.18 63.2 198.62 C 63.93 205.51 69 221.81 57.59 221.75 C 43.72 221.69 41.33 183.42 63.9 188.81 C 66.66 187.69 64.14 191.84 66 191.61 C 70.33 183.37 60.23 174.18 63.9 164.28 C 80.23 159.36 81.78 180.84 84.92 193.72 C 75.59 194.62 67.37 199.99 68.1 208.44 C 69.08 219.75 88.33 219.07 91.93 209.14 C 88.99 212.51 72.33 219.63 70.2 209.14 C 67.62 196.36 90.63 190.86 98.24 200.73 C 103.44 207.49 99.59 216.4 96.83 224.55 C 100.19 225.34 99.3 221.88 101.04 221.05 C 114.92 226.22 137.8 229.57 152.2 222.45 Z" style="fill: rgb(255,208,53);" />
    <path d="M 168.32 289.03 C 168.28 298.06 156.24 299.93 153.6 291.84 C 158.49 290.88 163.38 289.93 168.32 289.03 Z" style="fill: rgb(255,255,255);" />
    <path d="M 146.59 47.25 C 181.86 41.18 183.39 99.04 147.99 95.61 C 122.13 93.1 119.3 51.94 146.59 47.25 Z" style="fill: rgb(255,255,255);" />
    <path d="M 145.89 80.89 C 148.75 81.18 150.32 80.17 150.1 77.38 C 149.35 73.99 143.17 74.89 144.49 79.49 C 144.77 80.12 145.22 80.69 145.89 80.89 Z" style="fill: rgb(255,255,255);" />
    <path d="M 150.1 77.38 C 150.31 80.17 148.75 81.18 145.89 80.89 C 145.22 80.69 144.77 80.12 144.49 79.49 C 143.17 74.89 149.35 73.99 150.1 77.38 Z" style="fill: rgb(1,1,1);" />
    <path d="M 147.29 132.75 C 144.68 133.18 142.86 130.96 140.99 132.75 C 140.82 136.89 143.64 138.04 146.59 139.06 C 144.58 142.44 138.9 138.07 139.58 134.15 C 136.44 134.05 138.51 139.16 134.68 138.36 C 134.57 132.25 143.77 126.77 147.29 132.75 Z" style="fill: rgb(255,208,53);" />
    <path d="M 133.28 224.55 C 130.33 209.08 147.57 212.9 150.1 221.05 C 145.11 222.85 140.13 224.64 133.28 224.55 Z" style="fill: rgb(255,255,255);" />
    <path d="M 80.01 13.61 C 78.58 19.24 70.69 24.32 68.8 31.83 C 64.75 31.49 60.69 30.52 56.89 31.83 C 55.94 17.2 65.93 8.9 80.01 13.61 Z" style="fill: rgb(255,255,255);" />
    <path d="M 67.4 33.23 C 66.23 37.21 64.08 40.19 63.19 44.44 C 58.95 42.85 57.6 38.36 56.89 33.23 C 61.5 32.82 62.79 32.82 67.4 33.23 Z" style="fill: rgb(255,255,255);" />
    <path d="M 61.09 68.27 C 50.61 68.59 39.91 39.38 55.49 34.63 C 56.12 40.54 59.1 44.11 62.49 47.25 C 60.61 52.38 59.35 61.85 61.09 68.27 Z" style="fill: rgb(255,255,255);" />
    <path d="M 209.65 128.19 C 208.81 128.31 192.47 130.99 190.49 139.2 C 188.92 145.74 196.03 159.01 196.03 163.6 C 200.89 164.5 205.52 161.59 210.01 160.21 C 214.5 158.83 206.55 148.58 207.15 145.08 C 207.75 141.58 210.12 143.37 211.64 141.87 C 213.17 140.37 220.1 136.02 218 130.19 C 217.33 128.34 214.73 127.51 209.65 128.19 Z" style="fill: rgb(239,61,37);" />
    <path d="M 203.49 104.7 C 203.49 112.51 205.03 122.86 207.89 126.9 C 206.86 126.66 206.35 128.04 204.89 127.53 C 202.67 123 199.93 112.5 199.83 107.6 C 199.84 106.99 202.73 105.61 203.49 104.7 Z" style="fill: none;stroke: rgb(214,165,99); stroke-width: 1;" />
    <path d="M 274.77 96.8 " style="fill: none;stroke: rgb(1,1,1); stroke-width: 1;" />
    <path d="M 280.38 91.2 " style="fill: none;stroke: rgb(1,1,1); stroke-width: 1;" />
    <path d="M 280.38 91.2 " style="fill: none;stroke: rgb(1,1,1); stroke-width: 1;" />
    <path d="M 213.15 141.38 C 213.15 141.38 203.72 145.16 202.63 148.35 " style="fill: none;stroke: rgb(1,1,1); stroke-width: 2;" />
    <path d="M 197.85 131.56 C 201.72 132.01 206.44 131.46 208.53 133.46 " style="fill: none;stroke: rgb(1,1,1); stroke-width: 2;" />
</svg>
